<svg xmlns="http://www.w3.org/2000/svg" width="271" height="42" viewBox="0 0 271 42"><path d="M41.8 38.9c-2.3 0-4.1-.5-5.6-2l1.3-1.3c1.1 1.1 2.6 1.6 4.3 1.6 2.3 0 3.7-.8 3.7-2.4 0-1.2-.7-1.9-2.3-2l-2.3-.2c-2.7-.2-4.1-1.4-4.1-3.7 0-2.5 2.1-4 5-4 2 0 3.7.5 4.9 1.5l-1.3 1.3c-1-.8-2.2-1.1-3.7-1.1-2 0-3.1.9-3.1 2.3 0 1.2.7 1.9 2.4 2l2.2.2c2.4.2 4 1.1 4 3.7.2 2.6-2.1 4.1-5.4 4.1zm11.7-.2c-2.3 0-3.5-1.6-3.5-3.7v-8.4h-1.7v-1.5H50v-4.3h2v4.3h2.9v1.5H52V35c0 1.3.6 2 1.9 2H55v1.7h-1.5zm11.8 0v-1.3c-1.1 1.1-2.1 1.5-4 1.5s-3-.4-3.9-1.3c-.7-.7-1-1.7-1-2.8 0-2.4 1.7-4 4.7-4h4.1v-1.3c0-2-1-3-3.5-3-1.8 0-2.6.4-3.5 1.6L57 26.9c1.2-1.6 2.6-2 4.8-2 3.7 0 5.5 1.6 5.5 4.6v9.3h-2zm0-6.3h-3.8c-2.1 0-3.1.8-3.1 2.4 0 1.6 1 2.3 3.1 2.3 1.2 0 2.2-.1 3.1-.9.5-.4.7-1.2.7-2.4v-1.4zm9.9 6.5c-3.5 0-6.1-2.3-6.1-7s2.6-7 6.1-7c1.9 0 3.1.5 4.5 2l-1.4 1.3c-1-1.1-1.8-1.5-3.1-1.5s-2.5.5-3.2 1.6c-.6.9-.9 2-.9 3.7 0 1.7.3 2.8.9 3.7.7 1 1.8 1.6 3.2 1.6 1.3 0 2.1-.4 3.1-1.6l1.4 1.3c-1.4 1.4-2.6 1.9-4.5 1.9zm15.5-.2l-4.3-7-2.7 3.1v4h-2V18.9h2v13.3l6.2-7.1h2.5l-4.7 5.2 5.5 8.5h-2.5zm13.2-1.5c-.8.9-2.2 1.7-4.3 1.7-2 0-3.4-.8-4.3-1.7-1.2-1.3-1.6-2.9-1.6-5.4 0-2.5.3-4 1.6-5.3.8-.9 2.2-1.7 4.3-1.7 2 0 3.4.8 4.3 1.7 1.2 1.3 1.6 2.9 1.6 5.3 0 2.6-.4 4.1-1.6 5.4zm-2.7-8.7c-.4-.4-.9-.6-1.6-.6-.7 0-1.2.2-1.6.6-.7.7-.8 1.9-.8 3.3s.1 2.6.8 3.4c.4.4.9.6 1.6.6.7 0 1.2-.2 1.6-.6.7-.7.8-1.9.8-3.4 0-1.4 0-2.6-.8-3.3zm12 10.2h-2.7L105.4 25h3.6l2.8 8.5 2.8-8.5h3.6l-5 13.7zm8.3-5.8c0 1.8 1.1 3.1 3 3.1 1.5 0 2.2-.4 3.1-1.3l2.1 2c-1.4 1.4-2.7 2.2-5.2 2.2-3.2 0-6.4-1.5-6.4-7.1 0-4.5 2.4-7 6-7 3.8 0 6 2.8 6 6.6v1.5h-8.6zm4.9-3.8c-.4-.8-1.1-1.4-2.3-1.4-1.2 0-1.9.6-2.3 1.4-.2.5-.3.9-.3 1.5h5.2c0-.6-.1-1-.3-1.5zm12.9-.4c-.5-.5-1-.8-1.8-.8-1.1 0-2.2.8-2.2 2.5v8.3h-3.4V25h3.4v1.3c.7-.8 2-1.5 3.5-1.5 1.3 0 2.3.3 3.2 1.3l-2.7 2.6zm8.3-1.1v11.1h-3.4V27.6h-1.4V25h1.4v-1.7c0-2 1.2-3.9 4-3.9h2v2.9h-1.3c-.8 0-1.2.4-1.2 1.2V25h2.5v2.6h-2.6zm8.2 11.1c-2.8 0-4-2-4-3.9V19.3h3.4v15.2c0 .8.3 1.2 1.2 1.2h1.3v2.9h-1.9zm12.6-1.5c-.8.9-2.2 1.7-4.3 1.7-2 0-3.4-.8-4.3-1.7-1.2-1.3-1.6-2.9-1.6-5.4 0-2.5.3-4 1.6-5.3.8-.9 2.2-1.7 4.3-1.7 2 0 3.4.8 4.3 1.7 1.2 1.3 1.6 2.9 1.6 5.3-.1 2.6-.4 4.1-1.6 5.4zm-2.7-8.7c-.4-.4-.9-.6-1.6-.6s-1.2.2-1.6.6c-.7.7-.8 1.9-.8 3.3s.1 2.6.8 3.4c.4.4.9.6 1.6.6s1.2-.2 1.6-.6c.7-.7.8-1.9.8-3.4 0-1.4-.1-2.6-.8-3.3zm19.6 10.2h-2.8l-2.9-8.6-2.9 8.6h-2.8L169.7 25h3.6l2.2 8.5 2.8-8.5h2.5l2.8 8.5 2.2-8.5h3.6l-4.1 13.7z"/><path fill="#818185" d="M6 33h17v3H6zm20-8v14H3V25H0v17h29V25z"/><path fill="#A68A6E" d="M6.373 26.73L23.3 28.29l-.274 2.987-16.93-1.56z"/><path fill="#BF9452" d="M7.597 19.95l16.53 3.977-.702 2.917-16.53-3.976z"/><path fill="#D28B29" d="M11 12.206l15.047 7.91-1.397 2.657L9.604 14.86z"/><path fill="#F68A1F" d="M15.698 5.728L28.6 16.798l-1.952 2.276-12.903-11.07z"/><path fill="#F47920" d="M22.475.06l9.617 14.018-2.474 1.697L20 1.757zM197.1 38.9c-3.5 0-6.1-2.4-6.1-7.1 0-4.7 2.6-7.1 6.1-7.1 1.9 0 3.1.5 4.5 2l-1.4 1.3c-1-1.2-1.9-1.5-3.2-1.5-1.3 0-2.5.5-3.2 1.6-.6.9-.9 2-.9 3.7s.3 2.8.9 3.7c.7 1 1.9 1.6 3.2 1.6 1.3 0 2.1-.4 3.2-1.6l1.4 1.3c-1.4 1.6-2.6 2.1-4.5 2.1zm14.3-.2v-1.3c-1.1 1.1-2.1 1.5-4 1.5s-3-.4-3.9-1.3c-.7-.7-1-1.7-1-2.8 0-2.4 1.7-4 4.8-4h4.2v-1.3c0-2-1-3-3.5-3-1.8 0-2.7.4-3.5 1.6l-1.4-1.3c1.2-1.6 2.6-2 4.9-2 3.7 0 5.5 1.6 5.5 4.6v9.4h-2.1zm0-6.3h-3.9c-2.1 0-3.1.8-3.1 2.4 0 1.6 1 2.4 3.2 2.4 1.2 0 2.2-.1 3.1-.9.5-.4.7-1.2.7-2.4v-1.5zm11.4-4.8c-.8-.8-1.3-1-2.4-1-2 0-3.3 1.6-3.3 3.7v8.5h-2V24.9h2v1.7c.8-1.1 2.3-1.9 3.9-1.9 1.3 0 2.3.3 3.3 1.3l-1.5 1.6zm3.3 4.8c0 3 1.4 4.8 4.1 4.8 1.6 0 2.5-.5 3.6-1.6l1.4 1.2c-1.4 1.4-2.7 2.1-5 2.1-3.6 0-6-2.2-6-7.1 0-4.5 2.2-7.1 5.7-7.1 3.6 0 5.7 2.6 5.7 6.7v.9h-9.5zm6.8-3.9c-.5-1.3-1.8-2.1-3.2-2.1-1.5 0-2.7.8-3.2 2.1-.3.8-.4 1.2-.4 2.3h7.3c-.1-1.1-.1-1.5-.5-2.3zm5.8 3.9c0 3 1.4 4.8 4.1 4.8 1.6 0 2.5-.5 3.6-1.6l1.4 1.2c-1.4 1.4-2.7 2.1-5 2.1-3.6 0-6-2.2-6-7.1 0-4.5 2.2-7.1 5.7-7.1 3.6 0 5.7 2.6 5.7 6.7v.9h-9.5zm6.9-3.9c-.5-1.3-1.8-2.1-3.2-2.1-1.5 0-2.7.8-3.2 2.1-.3.8-.4 1.2-.4 2.3h7.3c-.1-1.1-.2-1.5-.5-2.3zm11.9-.9c-.8-.8-1.3-1-2.4-1-2 0-3.3 1.6-3.3 3.7v8.5h-2V24.9h2v1.7c.8-1.1 2.3-1.9 3.9-1.9 1.3 0 2.3.3 3.3 1.3l-1.5 1.6zm7 11.3c-2.3 0-4.2-.5-5.7-2l1.3-1.3c1.1 1.2 2.6 1.6 4.3 1.6 2.3 0 3.7-.8 3.7-2.4 0-1.2-.7-1.9-2.3-2l-2.3-.2c-2.7-.2-4.1-1.4-4.1-3.7 0-2.5 2.1-4 5.1-4 2 0 3.7.5 5 1.5l-1.3 1.3c-1-.8-2.2-1.1-3.7-1.1-2 0-3.1.9-3.1 2.3 0 1.2.7 1.9 2.4 2l2.2.1c2.4.2 4.1 1.2 4.1 3.7 0 2.7-2.3 4.2-5.6 4.2z"/></svg>